<?xml version="1.0" encoding="UTF-8"?>
<svg width="18px" height="18px" viewBox="0 0 18 18" version="1.1" xmlns="http://www.w3.org/2000/svg" xmlns:xlink="http://www.w3.org/1999/xlink">
    <title>EF443CEE-9B8B-4328-A011-9D9270AD4545</title>
    <g id="DV-Web---Prototype" stroke="none" stroke-width="1" fill="none" fill-rule="evenodd">
        <g id="Public-Diagnosis-detail-view" transform="translate(-302.000000, -431.000000)" fill="#EFCA08">
            <g id="Group" transform="translate(250.000000, 132.000000)">
                <g id="Cards/Search-preview" transform="translate(-1.043478, 254.000000)">
                    <g id="Group-2" transform="translate(53.710145, 44.000000)">
                        <g id="🔶-Icon" transform="translate(-0.000000, 1.666667)">
                            <path d="M8.33333333,0 C3.73333333,0 0,3.73333333 0,8.33333333 C0,12.9333333 3.73333333,16.6666667 8.33333333,16.6666667 C12.9333333,16.6666667 16.6666667,12.9333333 16.6666667,8.33333333 C16.6666667,3.73333333 12.9333333,0 8.33333333,0 Z M5.83333333,12.5 C5.375,12.5 5,12.125 5,11.6666667 L5,8.33333333 C5,7.875 5.375,7.5 5.83333333,7.5 C6.29166667,7.5 6.66666667,7.875 6.66666667,8.33333333 L6.66666667,11.6666667 C6.66666667,12.125 6.29166667,12.5 5.83333333,12.5 Z M11.3203451,5.71451823 L11.3203451,7.70670573 L13.2685872,7.70670573 L13.2685872,8.57584635 L11.3203451,8.57584635 L11.3203451,10.5582682 L10.4414388,10.5582682 L10.4414388,8.57584635 L8.49807943,8.57584635 L8.49807943,7.70670573 L10.4414388,7.70670573 L10.4414388,5.71451823 L11.3203451,5.71451823 Z M6.66666667,4.16666667 L6.66666667,5.83333333 L5,5.83333333 L5,4.16666667 L6.66666667,4.16666667 Z" id="🔹Icon-Color"></path>
                        </g>
                    </g>
                </g>
            </g>
        </g>
    </g>
</svg>