<?xml version="1.0" encoding="UTF-8"?>
<svg width="18px" height="18px" viewBox="0 0 18 18" version="1.1" xmlns="http://www.w3.org/2000/svg" xmlns:xlink="http://www.w3.org/1999/xlink">
    <title>4E876475-D8EE-4A5A-B0F8-8741BDD3B54B</title>
    <g id="DV-Web---Prototype" stroke="none" stroke-width="1" fill="none" fill-rule="evenodd">
        <g id="Public-Diagnosis-detail-view" transform="translate(-433.000000, -431.000000)" fill="#E15555">
            <g id="Group" transform="translate(250.000000, 132.000000)">
                <g id="Cards/Search-preview" transform="translate(-1.043478, 254.000000)">
                    <g id="Group-2" transform="translate(53.710145, 44.000000)">
                        <g id="🔶-Icon-Copy" transform="translate(131.000000, 1.666667)">
                            <path d="M8.33333333,0 C3.73333333,0 0,3.73333333 0,8.33333333 C0,12.9333333 3.73333333,16.6666667 8.33333333,16.6666667 C12.9333333,16.6666667 16.6666667,12.9333333 16.6666667,8.33333333 C16.6666667,3.73333333 12.9333333,0 8.33333333,0 Z M3.33333333,12.5 C2.875,12.5 2.5,12.125 2.5,11.6666667 L2.5,8.33333333 C2.5,7.875 2.875,7.5 3.33333333,7.5 C3.79166667,7.5 4.16666667,7.875 4.16666667,8.33333333 L4.16666667,11.6666667 C4.16666667,12.125 3.79166667,12.5 3.33333333,12.5 Z M7.98701172,5.71451823 L7.98701172,7.70670573 L9.93525391,7.70670573 L9.93525391,8.57584635 L7.98701172,8.57584635 L7.98701172,10.5582682 L7.10810547,10.5582682 L7.10810547,8.57584635 L5.16474609,8.57584635 L5.16474609,7.70670573 L7.10810547,7.70670573 L7.10810547,5.71451823 L7.98701172,5.71451823 Z M13.8203451,5.71451823 L13.8203451,7.70670573 L15.7685872,7.70670573 L15.7685872,8.57584635 L13.8203451,8.57584635 L13.8203451,10.5582682 L12.9414388,10.5582682 L12.9414388,8.57584635 L10.9980794,8.57584635 L10.9980794,7.70670573 L12.9414388,7.70670573 L12.9414388,5.71451823 L13.8203451,5.71451823 Z M4.16666667,4.16666667 L4.16666667,5.83333333 L2.5,5.83333333 L2.5,4.16666667 L4.16666667,4.16666667 Z" id="🔹Icon-Color"></path>
                        </g>
                    </g>
                </g>
            </g>
        </g>
    </g>
</svg>