<?xml version="1.0" encoding="UTF-8"?>
<svg width="184px" height="173px" viewBox="0 0 184 173" version="1.1" xmlns="http://www.w3.org/2000/svg" xmlns:xlink="http://www.w3.org/1999/xlink">
    <title>books-medical-gradient</title>
    <defs>
        <linearGradient x1="-5.27355937e-14%" y1="86.779139%" x2="149.694824%" y2="-11.0171226%" id="linearGradient-1">
            <stop stop-color="#071B39" offset="0%"></stop>
            <stop stop-color="#071B39" stop-opacity="0" offset="100%"></stop>
        </linearGradient>
    </defs>
    <g id="books-medical-gradient" stroke="none" stroke-width="1" fill="none" fill-rule="evenodd" opacity="0.606980097">
        <g>
            <g id="Group" transform="translate(11.000000, 10.000000)" fill="#FFFFFF">
                <g id="Group" transform="translate(0.000000, 18.000000)">
                    <path d="M155.835735,106.975784 L112.85556,1.87502542 C112.441297,0.748352354 111.331818,-0.00358632322 110.089015,1.28643514e-05 C109.357769,1.28643514e-05 108.870272,0.234400771 107.288344,0.775806904 C105.706417,1.31721304 104.894734,2.70705649 105.760041,5.08361848 C101.747941,7.35471174 91.3423168,10.729711 87.3570286,11.2758046 C87.0328431,10.3898673 86.8695316,9.72424248 85.7970382,9.11252386 L85.7970382,7.50002421 C85.7970384,3.35880459 82.3063661,0.00131995242 77.9995233,1.28643514e-05 L54.5996663,1.28643514e-05 C53.1371753,1.28643514e-05 51.864808,0.485181967 50.6996902,1.14846307 C49.5345723,0.485181967 48.2622051,1.28643514e-05 46.799714,1.28643514e-05 L23.399857,1.28643514e-05 C19.0920623,1.28643514e-05 15.5999047,3.35788948 15.5999047,7.50002421 L15.5999047,25.6781453 C18.1033636,24.6077394 20.7180265,23.796152 23.399857,23.2570521 L23.399857,7.50002421 L46.799714,7.50002421 L46.799714,25.6781453 C49.5744359,26.8832286 52.1923541,28.3975081 54.5996663,30.1898631 L54.5996663,30.0000129 L77.9995233,30.0000129 L77.9995233,90.0000129 L54.5996663,90.0000129 L54.5996663,89.8101627 C52.1923541,91.6025177 49.5744359,93.1167972 46.799714,94.3218805 L46.799714,112.500002 L23.399857,112.500002 L23.399857,96.7429738 C20.7180265,96.2038738 18.1033636,95.3922865 15.5999047,94.3218805 L15.5999047,112.500002 C15.5999047,116.642136 19.0920623,120 23.399857,120 L46.799714,120 C48.2622051,120 49.5345723,119.514844 50.6996902,118.851563 C51.864808,119.517188 53.1371753,120 54.5996663,120 L77.9995233,120 C82.3073181,120 85.7994757,116.642136 85.7994757,112.500002 L85.7994757,27.8625198 L122.710313,118.125 C123.128236,119.249003 124.235441,120 125.476858,120 C126.208104,120 126.695601,119.765625 128.277529,119.224219 C129.859456,118.682813 130.673576,117.295313 129.805832,114.916407 C133.817932,112.645314 144.223556,109.270315 148.208844,108.724221 C149.098526,111.161721 150.678017,111.689064 152.201445,111.175783 L154.041746,110.557033 C155.564917,110.043679 156.367759,108.441006 155.835735,106.975784 L155.835735,106.975784 Z M77.9995233,112.500005 L54.5996663,112.500005 L54.5996663,97.5000048 L77.9995233,97.5000048 L77.9995233,112.500005 Z M77.9995233,22.5000242 L54.5996663,22.5000242 L54.5996663,7.50002421 L77.9995233,7.50002421 L77.9995233,22.5000242 Z M127.517033,108.64219 L89.6482646,17.550022 C95.7956021,16.4390848 105.248169,12.7851793 108.051277,11.3578359 L145.920046,102.44766 C139.770271,103.560941 130.317704,107.212503 127.517033,108.64219 L127.517033,108.64219 Z M62.3996187,60.0000194 C62.3996187,43.431474 48.4309882,30.0000194 31.1998093,30.0000194 C13.9686304,30.0000194 0,43.431474 0,60.0000194 C0,76.5685518 13.9686304,90.0000065 31.1998093,90.0000065 C48.4309882,90.0000065 62.3996187,76.5685518 62.3996187,60.0000194 Z M7.79995233,60.0000178 C7.79995233,47.5736087 18.2764252,37.5000178 31.1998093,37.5000178 C44.1231935,37.5000178 54.5996663,47.5736087 54.5996663,60.0000178 C54.5996663,72.4264171 44.1231935,82.5000178 31.1998093,82.5000178 C18.2764252,82.5000178 7.79995233,72.4264171 7.79995233,60.0000178 Z M36.3989651,73.7507912 L36.3989651,64.9992306 L45.5005344,64.9992306 C45.8450983,64.9992306 46.1755497,64.8676169 46.4191931,64.633343 C46.6628365,64.3990691 46.799714,64.0813254 46.799714,63.7500121 L46.799714,56.2500137 C46.799714,55.5600894 46.2180515,55.0007952 45.5005344,55.0007952 L36.3989651,55.0007952 L36.3989651,46.2492346 C36.3989651,45.5593103 35.8173026,45.0000161 35.0997855,45.0000161 L27.2998332,45.0000161 C26.5823161,45.0000161 26.0006536,45.5593103 26.0006536,46.2492346 L26.0006536,55.0007952 L16.8990842,55.0007952 C16.5545204,55.0007952 16.224069,55.1324089 15.9804255,55.3666829 C15.7367821,55.6009568 15.5999047,55.9187004 15.5999047,56.2500137 L15.5999047,63.7500121 C15.5999047,64.4399364 16.1815672,64.9992306 16.8990842,64.9992306 L26.0006536,64.9992306 L26.0006536,73.7507912 C26.0006536,74.4407155 26.5823161,75.0000161 27.2998332,75.0000161 L35.0997855,75.0000161 C35.4443493,75.0000161 35.7748007,74.868396 36.0184442,74.6341221 C36.2620876,74.3998482 36.3989651,74.0821045 36.3989651,73.7507912 L36.3989651,73.7507912 Z" id="Shape"></path>
                </g>
            </g>
            <rect id="Rectangle" fill="url(#linearGradient-1)" x="0" y="0" width="184" height="173"></rect>
        </g>
    </g>
</svg>